<svg id="Calque_3" data-name="Calque 3" xmlns="http://www.w3.org/2000/svg" viewBox="0 0 337.38 342.07"><defs><style>.cls-1{fill:#2d57bb;}.cls-2{fill:#272c80;}.cls-3{fill:#f2c03c;}</style></defs><title>contract tricolor-v2</title><path class="cls-1" d="M513.47,781.79A26.4,26.4,0,0,0,478,770.34l-33.3,17.06,21.4-66.28A26.22,26.22,0,0,0,464.45,701l-16-31.3a26.18,26.18,0,0,0-15.37-13.07L289.42,610.27a26.39,26.39,0,0,0-33.19,17l-76,235.33a26.41,26.41,0,0,0,17,33.2l167.29,54a26.41,26.41,0,0,0,33.2-17l24-74.38L502,817.28A26.35,26.35,0,0,0,513.47,781.79Zm-115.37,69-6,3.06-19.65.19,11.64-15.84,6-3.06Zm15.65-8-8-15.65,53.19-27.27,8,15.65Zm19-165,16,31.29c1.79,3.51.65,6.36.07,8.14l-33.46-10.8,10.8-33.46C427.8,673.4,430.94,674.11,432.78,677.72ZM370,933.05l-167.29-54A8.81,8.81,0,0,1,197,868l76-235.33A8.79,8.79,0,0,1,284,627l125.47,40.49L396,709.32a8.79,8.79,0,0,0,5.67,11.06l41.82,13.5-20.93,64.87L389.9,815.48l-15.64,8a8.75,8.75,0,0,0-3.08,2.62L347.9,857.78a8.79,8.79,0,0,0,7.16,14l39.31-.38a8.64,8.64,0,0,0,3.92-1l1.34-.68L381,927.39A8.8,8.8,0,0,1,370,933.05ZM494,801.64l-11.41,5.84-8-15.64L486,786a8.79,8.79,0,1,1,8,15.65Z" transform="translate(-179 -608.99)"/><path class="cls-2" d="M273.75,716l117.11,37.8a8.79,8.79,0,1,0,5.4-16.73l-117.11-37.8a8.79,8.79,0,0,0-5.4,16.73Z" transform="translate(-179 -608.99)"/><path class="cls-2" d="M263,749.5l83.65,27a8.79,8.79,0,1,0,5.4-16.73l-83.65-27A8.79,8.79,0,0,0,263,749.5Z" transform="translate(-179 -608.99)"/><path class="cls-2" d="M252.16,783l83.64,27a8.79,8.79,0,1,0,5.4-16.73l-83.64-27a8.79,8.79,0,1,0-5.4,16.73Z" transform="translate(-179 -608.99)"/><path class="cls-2" d="M336.07,837.75a8.79,8.79,0,0,0-5.67-11.06l-83.64-27a8.79,8.79,0,1,0-5.4,16.73l83.64,27A8.8,8.8,0,0,0,336.07,837.75Z" transform="translate(-179 -608.99)"/><path class="cls-3" d="M347.3,888.79l-50.18-16.2a8.79,8.79,0,1,0-5.4,16.73l50.18,16.2a8.79,8.79,0,1,0,5.4-16.73Z" transform="translate(-179 -608.99)"/></svg>