<svg id="Calque_1" data-name="Calque 1" xmlns="http://www.w3.org/2000/svg" viewBox="0 0 37 37"><defs><style>.cls-1{fill:#d9534f;}.cls-2{fill:#fff;}.cls-3{fill:#f0bab9;}</style></defs><title>croix rouge champ saisie</title><path class="cls-1" d="M491,516.36a18.38,18.38,0,0,0,19,0l-9.49-9.5Z" transform="translate(-482 -482)"/><path class="cls-1" d="M510,484.64a18.38,18.38,0,0,0-19,0l9.49,9.5Z" transform="translate(-482 -482)"/><path class="cls-1" d="M516.36,510a18.38,18.38,0,0,0,0-19l-9.5,9.49Z" transform="translate(-482 -482)"/><path class="cls-1" d="M484.64,491a18.38,18.38,0,0,0,0,19l9.5-9.49Z" transform="translate(-482 -482)"/><path class="cls-2" d="M491,516.36a18.67,18.67,0,0,1-6.37-6.37" transform="translate(-482 -482)"/><path class="cls-3" d="M506.86,500.5l9.5-9.49a18.67,18.67,0,0,0-6.37-6.37l-9.49,9.5Z" transform="translate(-482 -482)"/><path class="cls-3" d="M494.14,500.5l-9.5,9.49a18.67,18.67,0,0,0,6.37,6.37l9.49-9.5Z" transform="translate(-482 -482)"/><path class="cls-2" d="M484.64,491a18.67,18.67,0,0,1,6.37-6.37" transform="translate(-482 -482)"/><path class="cls-3" d="M516.36,510l-9.5-9.49-6.36,6.36,9.49,9.5A18.67,18.67,0,0,0,516.36,510Z" transform="translate(-482 -482)"/><path class="cls-3" d="M500.5,494.14l-9.49-9.5a18.67,18.67,0,0,0-6.37,6.37l9.5,9.49Z" transform="translate(-482 -482)"/><rect class="cls-3" x="496" y="496" width="9" height="9" transform="translate(-689.31 18.5) rotate(-45)"/></svg>