<svg id="logo_adn_isolé" data-name="logo adn isolé" xmlns="http://www.w3.org/2000/svg" viewBox="0 0 367 340.5"><defs><style>.cls-1{fill:#f1f2f2;}.cls-2{fill:#bcbec0;}.cls-3{fill:none;}.cls-3,.cls-5{stroke:#f2c03c;stroke-miterlimit:10;stroke-width:6px;}.cls-4{fill:#f2c03c;}.cls-5{fill:#272c80;}</style></defs><title>device-jaune-v5</title><circle class="cls-1" cx="179.36" cy="85.94" r="12.06"/><path id="_Tracé_" data-name="&lt;Tracé&gt;" class="cls-2" d="M269.31,180.41a45.17,45.17,0,0,0,23.34-26.49c4-12.11,5.17-38-7.91-38-6,0-7.8,5.49-8.11,9.15-.55,6.58,3.47,14.9.76,27.22-3.8,17.22-14.84,23.5-23.19,23.5s-19.39-6.28-23.19-23.5c-2.72-12.32,1.31-20.64.75-27.22-.3-3.66-2.08-9.15-8.1-9.15-13.08,0-11.88,25.9-7.91,38a45.18,45.18,0,0,0,23.33,26.49,45.18,45.18,0,0,0-23.33,26.49c-4,12.1-5.17,38,7.91,38,6,0,7.8-5.5,8.1-9.15.56-6.58-3.47-14.9-.75-27.22,3.8-17.22,14.84-23.5,23.19-23.5s19.39,6.28,23.19,23.5c2.71,12.32-1.31,20.64-.76,27.22.31,3.65,2.09,9.15,8.11,9.15,13.08,0,11.88-25.91,7.91-38A45.17,45.17,0,0,0,269.31,180.41Z" transform="translate(-74.84 -57.55)"/><path class="cls-1" d="M269.31,180.41a45.17,45.17,0,0,0,23.34-26.49c4-12.11,5.17-38-7.91-38-6,0-7.8,5.49-8.11,9.15-.55,6.58,3.47,14.9.76,27.22-3.8,17.22-14.84,23.5-23.19,23.5s-19.39-6.28-23.19-23.5c-2.72-12.32,1.31-20.64.75-27.22-.3-3.66-2.08-9.15-8.1-9.15-13.08,0-11.88,25.9-7.91,38a45.18,45.18,0,0,0,23.33,26.49,43.4,43.4,0,0,0-10,6.55,42.09,42.09,0,0,1,33.19-.1v.06c6.3,3,12.45,9.64,15.1,21.62,2.71,12.32-1.31,20.64-.76,27.22.31,3.65,2.09,9.15,8.11,9.15,13.08,0,11.88-25.91,7.91-38A45.17,45.17,0,0,0,269.31,180.41Z" transform="translate(-74.84 -57.55)"/><path class="cls-1" d="M260.62,196.79H230a6,6,0,0,0,0,12h30.6a6,6,0,0,0,0-12Z" transform="translate(-74.84 -57.55)"/><path class="cls-1" d="M261.67,213.75H225.43a6,6,0,1,0,0,12h36.24a6,6,0,0,0,0-12Z" transform="translate(-74.84 -57.55)"/><path class="cls-3" d="M399.09,298.05H107.59A29.84,29.84,0,0,1,77.84,268.3V90.3a29.84,29.84,0,0,1,29.75-29.75h291.5A29.84,29.84,0,0,1,428.84,90.3v178A29.84,29.84,0,0,1,399.09,298.05Z" transform="translate(-74.84 -57.55)"/><line class="cls-3" x1="3" y1="32.75" x2="354" y2="32.75"/><line class="cls-3" x1="3" y1="216.5" x2="355" y2="216.5"/><path class="cls-4" d="M201.07,298.28l-26,25c-2.32,2.23,1.22,5.77,3.54,3.54l26-25c2.32-2.24-1.22-5.77-3.54-3.54Z" transform="translate(-74.84 -57.55)"/><path class="cls-4" d="M157.34,331.55h102c6.44,0,6.45-10,0-10h-102c-6.43,0-6.44,10,0,10Z" transform="translate(-74.84 -57.55)"/><rect class="cls-5" x="213" y="129.5" width="151" height="184" rx="22" ry="22"/><line class="cls-3" x1="212.33" y1="149.5" x2="364" y2="149.5"/><line class="cls-3" x1="214" y1="295.5" x2="361" y2="295.5"/><circle class="cls-1" cx="288.86" cy="198.17" r="7.29"/><path id="_Tracé_2" data-name="&lt;Tracé&gt;" class="cls-2" d="M372.84,278.05A27.32,27.32,0,0,0,387,262c2.4-7.32,3.13-23-4.78-23-3.64,0-4.72,3.32-4.9,5.53-.34,4,2.09,9,.45,16.46-2.29,10.41-9,14.21-14,14.21s-11.72-3.8-14-14.21c-1.64-7.45.79-12.48.46-16.46-.19-2.21-1.26-5.53-4.9-5.53-7.91,0-7.19,15.66-4.78,23a27.3,27.3,0,0,0,14.1,16,27.27,27.27,0,0,0-14.1,16c-2.41,7.31-3.13,23,4.78,23,3.64,0,4.71-3.33,4.9-5.53.33-4-2.1-9-.46-16.46,2.3-10.42,9-14.21,14-14.21s11.73,3.79,14,14.21c1.64,7.45-.79,12.48-.45,16.46.18,2.2,1.26,5.53,4.9,5.53,7.91,0,7.18-15.67,4.78-23A27.29,27.29,0,0,0,372.84,278.05Z" transform="translate(-74.84 -57.55)"/><path class="cls-1" d="M372.84,278.05A27.32,27.32,0,0,0,387,262c2.4-7.32,3.13-23-4.78-23-3.64,0-4.72,3.32-4.9,5.53-.34,4,2.09,9,.45,16.46-2.29,10.41-9,14.21-14,14.21s-11.72-3.8-14-14.21c-1.64-7.45.79-12.48.46-16.46-.19-2.21-1.26-5.53-4.9-5.53-7.91,0-7.19,15.66-4.78,23a27.3,27.3,0,0,0,14.1,16,26.15,26.15,0,0,0-6,4,25.45,25.45,0,0,1,20.06-.06v0c3.82,1.79,7.53,5.83,9.13,13.08,1.64,7.45-.79,12.48-.45,16.46.18,2.2,1.26,5.53,4.9,5.53,7.91,0,7.18-15.67,4.78-23A27.29,27.29,0,0,0,372.84,278.05Z" transform="translate(-74.84 -57.55)"/><path class="cls-1" d="M367.58,288h-18.5a3.62,3.62,0,0,0,0,7.24h18.5a3.62,3.62,0,0,0,0-7.24Z" transform="translate(-74.84 -57.55)"/><path class="cls-1" d="M368.22,298.21H346.31a3.62,3.62,0,1,0,0,7.23h21.91a3.62,3.62,0,1,0,0-7.23Z" transform="translate(-74.84 -57.55)"/><rect class="cls-5" x="178" y="197.5" width="88" height="140" rx="12" ry="12"/><line class="cls-3" x1="179.58" y1="212.5" x2="266.58" y2="212.5"/><line class="cls-3" x1="179" y1="322.5" x2="264" y2="322.5"/><circle class="cls-1" cx="223.08" cy="255.79" r="3.78"/><path id="_Tracé_3" data-name="&lt;Tracé&gt;" class="cls-2" d="M302.67,324.93a14.17,14.17,0,0,0,7.32-8.32c1.25-3.8,1.63-11.93-2.48-11.93-1.89,0-2.45,1.72-2.54,2.87-.18,2.07,1.09,4.68.23,8.55-1.19,5.4-4.65,7.37-7.28,7.37s-6.08-2-7.28-7.37c-.85-3.87.42-6.48.24-8.55-.1-1.15-.65-2.87-2.54-2.87-4.11,0-3.73,8.13-2.49,11.93a14.22,14.22,0,0,0,7.33,8.32,14.2,14.2,0,0,0-7.33,8.31c-1.24,3.8-1.62,11.94,2.49,11.94,1.89,0,2.44-1.73,2.54-2.87.18-2.07-1.09-4.68-.24-8.55,1.2-5.41,4.66-7.38,7.28-7.38s6.09,2,7.28,7.38c.86,3.87-.41,6.48-.23,8.55.09,1.14.65,2.87,2.54,2.87,4.11,0,3.73-8.14,2.48-11.94A14.15,14.15,0,0,0,302.67,324.93Z" transform="translate(-74.84 -57.55)"/><path class="cls-1" d="M302.67,324.93a14.17,14.17,0,0,0,7.32-8.32c1.25-3.8,1.63-11.93-2.48-11.93-1.89,0-2.45,1.72-2.54,2.87-.18,2.07,1.09,4.68.23,8.55-1.19,5.4-4.65,7.37-7.28,7.37s-6.08-2-7.28-7.37c-.85-3.87.42-6.48.24-8.55-.1-1.15-.65-2.87-2.54-2.87-4.11,0-3.73,8.13-2.49,11.93a14.22,14.22,0,0,0,7.33,8.32A13.67,13.67,0,0,0,290,327a13.28,13.28,0,0,1,10.42,0v0c2,.93,3.91,3,4.74,6.79s-.41,6.48-.23,8.55c.09,1.14.65,2.87,2.54,2.87,4.11,0,3.73-8.14,2.48-11.94A14.15,14.15,0,0,0,302.67,324.93Z" transform="translate(-74.84 -57.55)"/><path class="cls-1" d="M299.94,330.07h-9.61a1.88,1.88,0,0,0,0,3.76h9.61a1.88,1.88,0,0,0,0-3.76Z" transform="translate(-74.84 -57.55)"/><path class="cls-1" d="M300.27,335.39H288.89a1.88,1.88,0,0,0,0,3.76h11.38a1.88,1.88,0,0,0,0-3.76Z" transform="translate(-74.84 -57.55)"/></svg>