<svg id="logo_adn_isolé" data-name="logo adn isolé" xmlns="http://www.w3.org/2000/svg" viewBox="0 0 366.15 328.48"><defs><style>.cls-1{fill:none;}.cls-2{fill:#272c80;}.cls-3{fill:#2d57bb;}.cls-4{fill:#f1f2f2;}.cls-5{fill:#bcbec0;}.cls-6{fill:#f2c03c;}.cls-7{fill:#d9b147;}</style></defs><title>device-jaune-v4</title><rect class="cls-1" x="182.02" y="220.24" width="70.82" height="73.2"/><path class="cls-1" d="M242,374.36a3.17,3.17,0,0,0,3.16,3.16h64.5a3.16,3.16,0,0,0,3.16-3.16v-7.89H242Z" transform="translate(-60.01 -61.04)"/><path class="cls-1" d="M309.69,258.23h-64.5a3.17,3.17,0,0,0-3.16,3.16v7.89h70.82v-7.89A3.16,3.16,0,0,0,309.69,258.23Z" transform="translate(-60.01 -61.04)"/><path class="cls-1" d="M324.85,350.17H405.6a8.57,8.57,0,0,0,8.56-8.56V340H324.85Z" transform="translate(-60.01 -61.04)"/><path class="cls-1" d="M405.61,187H284.72a8.57,8.57,0,0,0-8.55,8.56v1.64h138v-1.64A8.57,8.57,0,0,0,405.61,187Z" transform="translate(-60.01 -61.04)"/><path class="cls-1" d="M385.76,73H85.85A13.84,13.84,0,0,0,73.4,80.88H398.21A13.84,13.84,0,0,0,385.76,73Z" transform="translate(-60.01 -61.04)"/><path class="cls-1" d="M85.85,282H230v-8.65H73A13.85,13.85,0,0,0,85.85,282Z" transform="translate(-60.01 -61.04)"/><polygon class="cls-1" points="117.48 243.46 170.02 243.46 170.02 232.98 127.22 232.98 117.48 243.46"/><path class="cls-1" d="M277.25,246.23h32.44a15.18,15.18,0,0,1,15.16,15.16V328h89.31V209.18H276.59" transform="translate(-60.01 -61.04)"/><line class="cls-2" x1="216.57" y1="148.15" x2="216.57" y2="148.15"/><path class="cls-3" d="M265.19,189.17h0l-.14-.16Z" transform="translate(-60.01 -61.04)"/><line class="cls-3" x1="217.23" y1="185.2" x2="217.23" y2="185.2"/><circle class="cls-4" cx="168.85" cy="77.12" r="12.06"/><path id="_Tracé_" data-name="&lt;Tracé&gt;" class="cls-5" d="M244,175.08a45.17,45.17,0,0,0,23.33-26.5c4-12.1,5.18-38-7.9-38-6,0-7.8,5.5-8.11,9.15-.56,6.59,3.47,14.9.75,27.22-3.8,17.23-14.84,23.51-23.19,23.51s-19.38-6.28-23.18-23.51c-2.72-12.32,1.31-20.63.75-27.22-.31-3.65-2.09-9.15-8.11-9.15-13.08,0-11.88,25.91-7.9,38a45.14,45.14,0,0,0,23.33,26.5,45.09,45.09,0,0,0-23.33,26.49c-4,12.1-5.18,38,7.9,38,6,0,7.8-5.5,8.11-9.15.56-6.59-3.47-14.9-.75-27.22,3.8-17.22,14.84-23.5,23.18-23.5s19.39,6.28,23.19,23.5c2.72,12.32-1.31,20.63-.75,27.22.31,3.65,2.08,9.15,8.11,9.15,13.08,0,11.88-25.91,7.9-38A45.12,45.12,0,0,0,244,175.08Z" transform="translate(-60.01 -61.04)"/><path class="cls-4" d="M244,175.08a45.17,45.17,0,0,0,23.33-26.5c4-12.1,5.18-38-7.9-38-6,0-7.8,5.5-8.11,9.15-.56,6.59,3.47,14.9.75,27.22-3.8,17.23-14.84,23.51-23.19,23.51s-19.38-6.28-23.18-23.51c-2.72-12.32,1.31-20.63.75-27.22-.31-3.65-2.09-9.15-8.11-9.15-13.08,0-11.88,25.91-7.9,38a45.14,45.14,0,0,0,23.33,26.5,44,44,0,0,0-10,6.54,42.14,42.14,0,0,1,33.19-.09v.05c6.31,3,12.46,9.65,15.1,21.63,2.72,12.32-1.31,20.63-.75,27.22.31,3.65,2.08,9.15,8.11,9.15,13.08,0,11.88-25.91,7.9-38A45.12,45.12,0,0,0,244,175.08Z" transform="translate(-60.01 -61.04)"/><path class="cls-4" d="M235.29,191.46h-30.6a6,6,0,1,0,0,12h30.6a6,6,0,1,0,0-12Z" transform="translate(-60.01 -61.04)"/><path class="cls-4" d="M236.34,208.42H200.09a6,6,0,0,0,0,12h36.25a6,6,0,0,0,0-12Z" transform="translate(-60.01 -61.04)"/><line class="cls-3" x1="216.15" y1="148.15" x2="216.15" y2="185.2"/><path class="cls-6" d="M411.6,175.88v-89A25.87,25.87,0,0,0,385.76,61H85.85A25.87,25.87,0,0,0,60,86.88v181.3A25.87,25.87,0,0,0,85.85,294h85l-9.73,10.47H146.54a6,6,0,1,0,0,12H230v57.87a15.18,15.18,0,0,0,15.16,15.16h64.5a15.18,15.18,0,0,0,15.16-15.16V362.17h80.76a20.58,20.58,0,0,0,20.55-20.56V195.54A20.58,20.58,0,0,0,411.6,175.88ZM85.85,73H385.76a13.84,13.84,0,0,1,12.45,7.84H73.4A13.84,13.84,0,0,1,85.85,73ZM230,304.49H177.5L187.23,294H230ZM230,282H85.85A13.85,13.85,0,0,1,73,273.37H230Zm82.82,92.34a3.16,3.16,0,0,1-3.16,3.16h-64.5a3.17,3.17,0,0,1-3.16-3.16v-7.89h70.82Zm0-19.89H242V281.28h70.82Zm0-85.19H242v-7.89a3.17,3.17,0,0,1,3.16-3.16h64.5a3.16,3.16,0,0,1,3.16,3.16Zm101.31,72.33a8.57,8.57,0,0,1-8.56,8.56H324.85V340h89.31Zm0-13.64H324.85V261.39a15.18,15.18,0,0,0-15.16-15.16H277.25c-.09.22-.17.44-.26.65a14.2,14.2,0,0,1-4,5.63,9.35,9.35,0,0,1-2.21,1.33,10.11,10.11,0,0,1-4,.79c-5.92,0-8.47-4.38-9.42-8.4H245.19A15.18,15.18,0,0,0,230,261.37H72V92.88H399.6V175H284.72a20.58,20.58,0,0,0-19.53,14.19q1.77,2,3.36,4.14c1.1,1.5,2.13,3.07,3.09,4.69a54.26,54.26,0,0,1,4.72,10.45c.08.23.15.49.23.73H414.16Zm0-130.79h-138v-1.64a8.57,8.57,0,0,1,8.55-8.56H405.61a8.57,8.57,0,0,1,8.55,8.56Z" transform="translate(-60.01 -61.04)"/><path class="cls-7" d="M276.59,209.18h0c-.08-.24-.15-.5-.23-.73A54.26,54.26,0,0,0,271.64,198a54.26,54.26,0,0,1,4.72,10.45C276.44,208.68,276.51,208.94,276.59,209.18Z" transform="translate(-60.01 -61.04)"/><path class="cls-7" d="M277,246.88c.09-.21.17-.43.26-.65h0C277.16,246.45,277.08,246.67,277,246.88Z" transform="translate(-60.01 -61.04)"/><path class="cls-7" d="M268.55,193.31c1.1,1.5,2.13,3.07,3.09,4.69C270.68,196.38,269.65,194.81,268.55,193.31Z" transform="translate(-60.01 -61.04)"/><path class="cls-7" d="M273,252.51a9.35,9.35,0,0,1-2.21,1.33A9.35,9.35,0,0,0,273,252.51Z" transform="translate(-60.01 -61.04)"/><path class="cls-7" d="M268.55,193.31q-1.59-2.16-3.36-4.14h0Q267,191.15,268.55,193.31Z" transform="translate(-60.01 -61.04)"/><path class="cls-6" d="M276.17,246.23v-37h.42c-.08-.24-.15-.5-.23-.73A54.26,54.26,0,0,0,271.64,198c-1-1.62-2-3.19-3.09-4.69s-2.18-2.82-3.36-4.14a20.38,20.38,0,0,0-1,6.37v50.69h-6.84c.95,4,3.5,8.4,9.42,8.4a10.11,10.11,0,0,0,4-.79,9.35,9.35,0,0,0,2.21-1.33,14.2,14.2,0,0,0,4-5.63c.09-.21.17-.43.26-.65Z" transform="translate(-60.01 -61.04)"/><circle class="cls-4" cx="288.85" cy="184.69" r="7.29"/><path id="_Tracé_2" data-name="&lt;Tracé&gt;" class="cls-5" d="M358,268.05a27.32,27.32,0,0,0,14.11-16c2.4-7.32,3.13-23-4.78-23-3.64,0-4.72,3.32-4.9,5.53-.34,4,2.09,9,.45,16.46-2.3,10.41-9,14.21-14,14.21s-11.72-3.8-14-14.21c-1.64-7.45.79-12.48.46-16.46-.19-2.21-1.26-5.53-4.91-5.53-7.9,0-7.18,15.66-4.78,23a27.35,27.35,0,0,0,14.11,16,27.32,27.32,0,0,0-14.11,16c-2.4,7.31-3.12,23,4.78,23,3.65,0,4.72-3.33,4.91-5.53.33-4-2.1-9-.46-16.46,2.3-10.42,9-14.21,14-14.21s11.72,3.79,14,14.21c1.64,7.45-.79,12.48-.45,16.46.18,2.2,1.26,5.53,4.9,5.53,7.91,0,7.18-15.67,4.78-23A27.29,27.29,0,0,0,358,268.05Z" transform="translate(-60.01 -61.04)"/><path class="cls-4" d="M358,268.05a27.32,27.32,0,0,0,14.11-16c2.4-7.32,3.13-23-4.78-23-3.64,0-4.72,3.32-4.9,5.53-.34,4,2.09,9,.45,16.46-2.3,10.41-9,14.21-14,14.21s-11.72-3.8-14-14.21c-1.64-7.45.79-12.48.46-16.46-.19-2.21-1.26-5.53-4.91-5.53-7.9,0-7.18,15.66-4.78,23a27.35,27.35,0,0,0,14.11,16,26.42,26.42,0,0,0-6,4,25.47,25.47,0,0,1,20.07-.06v0c3.82,1.79,7.53,5.83,9.13,13.08,1.64,7.45-.79,12.48-.45,16.46.18,2.2,1.26,5.53,4.9,5.53,7.91,0,7.18-15.67,4.78-23A27.29,27.29,0,0,0,358,268.05Z" transform="translate(-60.01 -61.04)"/><path class="cls-4" d="M352.74,278h-18.5a3.62,3.62,0,0,0,0,7.24h18.5a3.62,3.62,0,0,0,0-7.24Z" transform="translate(-60.01 -61.04)"/><path class="cls-4" d="M353.38,288.21H331.46a3.62,3.62,0,0,0,0,7.23h21.92a3.62,3.62,0,1,0,0-7.23Z" transform="translate(-60.01 -61.04)"/><circle class="cls-4" cx="217.25" cy="245.67" r="3.78"/><path id="_Tracé_3" data-name="&lt;Tracé&gt;" class="cls-5" d="M282,318.3a14.22,14.22,0,0,0,7.33-8.32c1.24-3.8,1.62-11.93-2.49-11.93-1.89,0-2.44,1.72-2.54,2.87-.18,2.07,1.09,4.68.24,8.55-1.2,5.4-4.66,7.37-7.28,7.37s-6.09-2-7.28-7.37c-.86-3.87.41-6.48.23-8.55-.09-1.15-.65-2.87-2.54-2.87-4.11,0-3.73,8.13-2.48,11.93a14.17,14.17,0,0,0,7.32,8.32,14.14,14.14,0,0,0-7.32,8.32c-1.25,3.79-1.63,11.93,2.48,11.93,1.89,0,2.45-1.73,2.54-2.87.18-2.07-1.09-4.68-.23-8.55,1.19-5.41,4.66-7.38,7.28-7.38s6.08,2,7.28,7.38c.85,3.87-.42,6.48-.24,8.55.1,1.14.65,2.87,2.54,2.87,4.11,0,3.73-8.14,2.49-11.93A14.19,14.19,0,0,0,282,318.3Z" transform="translate(-60.01 -61.04)"/><path class="cls-4" d="M282,318.3a14.22,14.22,0,0,0,7.33-8.32c1.24-3.8,1.62-11.93-2.49-11.93-1.89,0-2.44,1.72-2.54,2.87-.18,2.07,1.09,4.68.24,8.55-1.2,5.4-4.66,7.37-7.28,7.37s-6.09-2-7.28-7.37c-.86-3.87.41-6.48.23-8.55-.09-1.15-.65-2.87-2.54-2.87-4.11,0-3.73,8.13-2.48,11.93a14.17,14.17,0,0,0,7.32,8.32,13.4,13.4,0,0,0-3.13,2.05,13.28,13.28,0,0,1,10.42,0v0c2,.93,3.91,3,4.74,6.79s-.42,6.48-.24,8.55c.1,1.14.65,2.87,2.54,2.87,4.11,0,3.73-8.14,2.49-11.93A14.19,14.19,0,0,0,282,318.3Z" transform="translate(-60.01 -61.04)"/><path class="cls-4" d="M279.28,323.44h-9.6a1.88,1.88,0,0,0,0,3.76h9.6a1.88,1.88,0,1,0,0-3.76Z" transform="translate(-60.01 -61.04)"/><path class="cls-4" d="M279.61,328.76H268.23a1.88,1.88,0,0,0,0,3.76h11.38a1.88,1.88,0,0,0,0-3.76Z" transform="translate(-60.01 -61.04)"/></svg>