<svg id="Calque_5" data-name="Calque 5" xmlns="http://www.w3.org/2000/svg" xmlns:xlink="http://www.w3.org/1999/xlink" viewBox="0 0 350 350"><defs><style>.cls-1{fill:none;}.cls-2{clip-path:url(#clip-path);}.cls-3{fill:#2d57bb;}.cls-4{fill:#272c80;}.cls-5{fill:#f2c03c;}</style><clipPath id="clip-path" transform="translate(-144 -113)"><rect class="cls-1" x="144" y="113" width="350" height="350"/></clipPath></defs><title>increased-tricolor-v2</title><g class="cls-2"><path class="cls-3" d="M464,201.88,417.2,124.32a6.84,6.84,0,0,0-11.71,0L358.7,201.88a6.84,6.84,0,0,0,5.85,10.37h12.12v36.93H324.3a6.83,6.83,0,0,0-6.84,6.83v23.93H265.13a6.83,6.83,0,0,0-6.84,6.83V310.7H206a6.84,6.84,0,0,0-6.84,6.84V410.1a6.84,6.84,0,0,0,6.84,6.83H439.18A6.83,6.83,0,0,0,446,410.1V212.25h12.12A6.84,6.84,0,0,0,464,201.88ZM212.79,324.37h45.5v78.89h-45.5ZM272,293.61h45.5V403.26H272Zm59.18-30.76h45.53V403.26H331.14Zm108-64.27a6.83,6.83,0,0,0-6.83,6.84V403.26h-42v-191h12.33a6.84,6.84,0,1,0,0-13.67h-26l34.68-57.49L446,198.58Zm0,0" transform="translate(-144 -113)"/><path class="cls-4" d="M327.2,433.45H173.55V140.26l3.59,4.75a6.83,6.83,0,1,0,10.91-8.23l-15.88-21.06a6.83,6.83,0,0,0-10.91,0l-15.88,21.06A6.83,6.83,0,1,0,156.29,145l3.59-4.75V433.45H152a6.84,6.84,0,1,0,0,13.67h7.93v7.93a6.84,6.84,0,1,0,13.67,0v-7.93H327.2a6.84,6.84,0,0,0,0-13.67Zm0,0" transform="translate(-144 -113)"/></g><path class="cls-5" d="M360.21,437.67a7.37,7.37,0,0,0-.62-1.18,7.14,7.14,0,0,0-.85-1,7.71,7.71,0,0,0-1-.85,7.1,7.1,0,0,0-1.19-.63,6.69,6.69,0,0,0-1.27-.39,6.81,6.81,0,0,0-3.95.39,7.42,7.42,0,0,0-1.18.63,7.71,7.71,0,0,0-1,.85,7.14,7.14,0,0,0-.85,1,6.69,6.69,0,0,0-.63,1.18,7,7,0,0,0-.39,1.28,6.92,6.92,0,0,0,0,2.67,7.53,7.53,0,0,0,.39,1.28,6.69,6.69,0,0,0,.63,1.18,6.71,6.71,0,0,0,1.89,1.89,6.69,6.69,0,0,0,1.18.63,7,7,0,0,0,1.28.39,6.74,6.74,0,0,0,3.94-.39,6.44,6.44,0,0,0,1.19-.63,6.71,6.71,0,0,0,1.89-1.89,7.37,7.37,0,0,0,.62-1.18,7.53,7.53,0,0,0,.39-1.28,6.44,6.44,0,0,0,0-2.67,7,7,0,0,0-.39-1.28Zm0,0" transform="translate(-144 -113)"/><path class="cls-4" d="M491.28,434.83,470.22,419A6.83,6.83,0,0,0,462,429.86l4.75,3.59H380.27a6.84,6.84,0,0,0,0,13.67h86.47L462,450.71a6.83,6.83,0,1,0,8.23,10.91l21.06-15.88a6.83,6.83,0,0,0,0-10.91Zm0,0" transform="translate(-144 -113)"/><path class="cls-5" d="M337.82,170.56A6.84,6.84,0,0,0,327.9,166l-21.23,11.42a6.84,6.84,0,1,0,6.48,12l4.26-2.29c-11.55,24.82-40.84,50.89-78.06,69.13A228.55,228.55,0,0,1,201.15,271,6.84,6.84,0,0,0,203,284.45a6.7,6.7,0,0,0,1.87-.26,242.35,242.35,0,0,0,40.49-15.61c39.1-19.17,70.29-47,83.68-74.09l.55,2.55a6.85,6.85,0,0,0,6.68,5.38,7.33,7.33,0,0,0,1.46-.16,6.84,6.84,0,0,0,5.22-8.14Zm0,0" transform="translate(-144 -113)"/></svg>