<svg id="Calque_1" data-name="Calque 1" xmlns="http://www.w3.org/2000/svg" viewBox="0 0 396.93 396.92"><defs><style>.cls-1{fill:#f2c03c;}.cls-2{fill:#fff;}</style></defs><title>one</title><path class="cls-1" d="M959.46,342C849.85,342,761,430.85,761,540.46s88.85,198.46,198.46,198.46,198.47-88.85,198.47-198.46S1069.07,342,959.46,342Zm0,0" transform="translate(-761 -342)"/><path class="cls-2" d="M984,458.33a12,12,0,0,0-10-4.8q-5.5,0-7.5,2.11T958,466.89a96.38,96.38,0,0,1-15.06,16.52q-8.51,7.38-22.67,14.06-9.49,4.45-13.25,7.27t-3.75,8.79a12.67,12.67,0,0,0,3.81,9.08,11.84,11.84,0,0,0,8.73,3.93q10.31,0,40.08-22.86V610.32q0,9.39,4.34,14.18a14.67,14.67,0,0,0,11.48,4.81q16,0,16-23.55V471.58c0-5.63-1.25-10-3.75-13.25Zm0,0" transform="translate(-761 -342)"/></svg>