<svg id="Calque_4" data-name="Calque 4" xmlns="http://www.w3.org/2000/svg" xmlns:xlink="http://www.w3.org/1999/xlink" viewBox="0 0 347.13 369.2"><defs><style>.cls-1{fill:none;}.cls-2{fill:#2d57bb;}.cls-3{fill:#272c80;}.cls-4{clip-path:url(#clip-path);}.cls-5{fill:#f2c03c;}</style><clipPath id="clip-path" transform="translate(-812.44 -99.79)"><rect class="cls-1" x="812.44" y="99.92" width="350" height="369.12"/></clipPath></defs><title>people-tricolor-v2</title><path class="cls-2" d="M900.19,312a85.4,85.4,0,0,1,16.93-51.07,62.71,62.71,0,0,0-104.68,46.66s14.77,131.91,62.77,131.91c18.57,0,32.14-19.72,41.83-43.89-11.32-37.23-15.88-74.37-16.78-82.37Zm0,0" transform="translate(-812.44 -99.79)"/><path class="cls-2" d="M875.21,240.21a55.45,55.45,0,0,0,48.7-28.9,76.4,76.4,0,0,1-15-45.52,77.36,77.36,0,0,1,3.3-22.22,55.41,55.41,0,1,0-37,96.64Zm0,0" transform="translate(-812.44 -99.79)"/><path class="cls-3" d="M1096.8,244.76a62.51,62.51,0,0,0-41.91,16.12A85.28,85.28,0,0,1,1071.84,312l-.08,1.24c-.89,8-5.47,45.14-16.77,82.37,9.67,24.17,23.25,43.89,41.81,43.89,48,0,62.77-131.91,62.77-131.91a62.78,62.78,0,0,0-62.77-62.78Zm0,0" transform="translate(-812.44 -99.79)"/><path class="cls-3" d="M1048.12,211.31a55.51,55.51,0,1,0,11.67-67.74,76.62,76.62,0,0,1-11.67,67.74Zm0,0" transform="translate(-812.44 -99.79)"/><g class="cls-4"><path class="cls-5" d="M986,237.22A74.72,74.72,0,0,0,911.27,312S928.85,469,986,469s74.74-157,74.74-157A74.73,74.73,0,0,0,986,237.22Zm0,0" transform="translate(-812.44 -99.79)"/><path class="cls-5" d="M1052,165.79a66,66,0,1,1-66-66,66,66,0,0,1,66,66Zm0,0" transform="translate(-812.44 -99.79)"/></g></svg>