<svg xmlns="http://www.w3.org/2000/svg" viewBox="0 0 366.15 328.48"><defs><style>.cls-1{fill:#f2c03c;}.cls-2{fill:#272c80;}.cls-3{fill:#2d57bb;}.cls-4{fill:#f1bf3a;}.cls-5{fill:none;}.cls-6{fill:#d9b147;}</style></defs><title>picto-responsive</title><g id="Calque_7" data-name="Calque 7"><g id="couleur-cadre"><circle class="cls-1" cx="285.63" cy="184.79" r="7.32"/><path class="cls-2" d="M339.81,252.22A27.43,27.43,0,0,0,354,236.12c2.41-7.35,3.14-23.09-4.81-23.09-3.66,0-4.74,3.34-4.92,5.56-.34,4,2.1,9,.45,16.54-2.3,10.46-9,14.28-14.08,14.28s-11.78-3.82-14.09-14.28c-1.65-7.49.79-12.54.46-16.54-.19-2.22-1.27-5.56-4.93-5.56-7.94,0-7.22,15.74-4.8,23.09a27.44,27.44,0,0,0,14.17,16.1,27.44,27.44,0,0,0-14.17,16.1c-2.42,7.35-3.14,23.09,4.8,23.09,3.66,0,4.74-3.34,4.93-5.56.33-4-2.11-9.05-.46-16.54,2.31-10.46,9-14.28,14.09-14.28s11.78,3.82,14.08,14.28c1.65,7.49-.79,12.54-.45,16.54.18,2.22,1.26,5.56,4.92,5.56,7.95,0,7.22-15.74,4.81-23.09A27.43,27.43,0,0,0,339.81,252.22Z" transform="translate(-45 -45)"/><path class="cls-3" d="M339.81,252.22A27.43,27.43,0,0,0,354,236.12c2.41-7.35,3.14-23.09-4.81-23.09-3.66,0-4.74,3.34-4.92,5.56-.34,4,2.1,9,.45,16.54-2.3,10.46-9,14.28-14.08,14.28s-11.78-3.82-14.09-14.28c-1.65-7.49.79-12.54.46-16.54-.19-2.22-1.27-5.56-4.93-5.56-7.94,0-7.22,15.74-4.8,23.09a27.44,27.44,0,0,0,14.17,16.1,26.41,26.41,0,0,0-6.06,4,25.58,25.58,0,0,1,20.16-.06v0c3.83,1.8,7.57,5.86,9.17,13.14,1.65,7.49-.79,12.54-.45,16.54.18,2.22,1.26,5.56,4.92,5.56,7.95,0,7.22-15.74,4.81-23.09A27.43,27.43,0,0,0,339.81,252.22Z" transform="translate(-45 -45)"/><path class="cls-4" d="M334.53,262.17H315.94a3.64,3.64,0,1,0,0,7.27h18.59a3.64,3.64,0,0,0,0-7.27Z" transform="translate(-45 -45)"/><path class="cls-4" d="M335.17,272.48h-22a3.63,3.63,0,1,0,0,7.26h22a3.63,3.63,0,0,0,0-7.26Z" transform="translate(-45 -45)"/></g><g id="couleur-cadre-2" data-name="couleur-cadre"><circle class="cls-1" cx="219.63" cy="246" r="3.66"/><path class="cls-2" d="M269.22,302.22a13.73,13.73,0,0,0,7.09-8.05c1.2-3.67,1.57-11.54-2.41-11.54-1.82,0-2.37,1.67-2.46,2.78-.17,2,1.06,4.52.23,8.26-1.15,5.24-4.51,7.14-7,7.14s-5.89-1.9-7.05-7.14c-.82-3.74.4-6.26.23-8.26-.09-1.11-.63-2.78-2.46-2.78-4,0-3.61,7.87-2.4,11.54a13.7,13.7,0,0,0,7.09,8.05,13.7,13.7,0,0,0-7.09,8c-1.21,3.67-1.57,11.54,2.4,11.54,1.83,0,2.37-1.67,2.46-2.78.17-2-1.05-4.52-.23-8.26,1.16-5.24,4.51-7.14,7.05-7.14s5.89,1.9,7,7.14c.83,3.74-.4,6.26-.23,8.26.09,1.11.64,2.78,2.46,2.78,4,0,3.61-7.87,2.41-11.54A13.73,13.73,0,0,0,269.22,302.22Z" transform="translate(-45 -45)"/><path class="cls-3" d="M269.22,302.22a13.73,13.73,0,0,0,7.09-8.05c1.2-3.67,1.57-11.54-2.41-11.54-1.82,0-2.37,1.67-2.46,2.78-.17,2,1.06,4.52.23,8.26-1.15,5.24-4.51,7.14-7,7.14s-5.89-1.9-7.05-7.14c-.82-3.74.4-6.26.23-8.26-.09-1.11-.63-2.78-2.46-2.78-4,0-3.61,7.87-2.4,11.54a13.7,13.7,0,0,0,7.09,8.05,13.16,13.16,0,0,0-3,2,12.79,12.79,0,0,1,10.08,0v0c1.92.9,3.79,2.93,4.59,6.57s-.4,6.26-.23,8.26c.09,1.11.64,2.78,2.46,2.78,4,0,3.61-7.87,2.41-11.54A13.73,13.73,0,0,0,269.22,302.22Z" transform="translate(-45 -45)"/><path class="cls-4" d="M266.58,307.2h-9.3a1.82,1.82,0,1,0,0,3.63h9.3a1.82,1.82,0,0,0,0-3.63Z" transform="translate(-45 -45)"/><path class="cls-4" d="M266.9,312.35h-11a1.82,1.82,0,1,0,0,3.63h11a1.82,1.82,0,0,0,0-3.63Z" transform="translate(-45 -45)"/></g></g><g id="Calque_1" data-name="Calque 1"><rect class="cls-5" x="182.02" y="220.24" width="70.82" height="73.2"/><path class="cls-5" d="M227,358.32a3.15,3.15,0,0,0,3.16,3.16h64.5a3.16,3.16,0,0,0,3.16-3.16v-7.88H227Z" transform="translate(-45 -45)"/><path class="cls-5" d="M294.68,242.2h-64.5a3.15,3.15,0,0,0-3.16,3.15v7.89h70.82v-7.89A3.16,3.16,0,0,0,294.68,242.2Z" transform="translate(-45 -45)"/><path class="cls-5" d="M309.84,334.14h80.75a8.57,8.57,0,0,0,8.56-8.56v-1.64H309.84Z" transform="translate(-45 -45)"/><path class="cls-5" d="M242,222.74c.18-1.67.46-3.43.75-5.29.19-1.25.4-2.55.58-3.89s.34-2.76.45-4.22a50,50,0,0,0-1-14.94c-.18-.81-.38-1.6-.58-2.37l-.18-.65c-.17-.6-.34-1.2-.53-1.78,0-.17-.1-.34-.16-.5-.23-.72-.48-1.42-.74-2.11-.05-.14-.11-.27-.16-.41-.22-.56-.44-1.1-.67-1.62-.08-.18-.15-.36-.23-.53-.28-.61-.56-1.2-.85-1.78a.59.59,0,0,1,0-.08c-.31-.61-.64-1.2-1-1.77l-.23-.4c-.28-.46-.56-.91-.85-1.35-.06-.11-.13-.21-.2-.32-.35-.53-.72-1-1.09-1.54l-.1-.14c-.34-.45-.69-.88-1-1.3l-.23-.27a29.56,29.56,0,0,0-2.44-2.54l-.15-.15c-.39-.35-.78-.69-1.18-1l-.12-.1a28,28,0,0,0-2.69-1.94l-.12-.07a26.6,26.6,0,0,0-2.8-1.53h0a23.3,23.3,0,0,0-9.82-2.28c-7.38,0-16.48,4-22.67,14.28h30.47a7.27,7.27,0,1,1,0,14.53h-36a48.47,48.47,0,0,0-.9,6.07h38.21a7.27,7.27,0,0,1,0,14.54H186.17c.69,4.65,1.5,8.64,1.2,12.21-.38,4.44-2.54,11.12-9.85,11.12-15.9,0-14.44-31.48-9.61-46.19a54.91,54.91,0,0,1,16.22-24.24h0c1.32-1.14,2.69-2.22,4.1-3.22l.46-.33,1.19-.81c.39-.26.79-.51,1.2-.76s.73-.45,1.1-.66.93-.54,1.4-.8l.65-.35c.67-.35,1.35-.7,2-1h0q-2.34-1.11-4.61-2.47a54.51,54.51,0,0,1-8.58-6.4c-1.34-1.22-2.63-2.52-3.86-3.88s-2.39-2.81-3.49-4.31A53.86,53.86,0,0,1,167.91,128c-4.83-14.71-6.29-46.18,9.61-46.18a8.56,8.56,0,0,1,6.92,3.08A11.48,11.48,0,0,1,186,87.49,17.17,17.17,0,0,1,187.37,93q.06.75.06,1.53v0a36.82,36.82,0,0,1-.38,4.87c-.08.58-.17,1.16-.26,1.76s-.21,1.38-.33,2.09c-.28,1.8-.57,3.69-.79,5.7-.15,1.41-.27,2.87-.33,4.39a50.72,50.72,0,0,0,.23,7.3,51.4,51.4,0,0,0,5.05,17.28,37.51,37.51,0,0,0,2.37,4,32.75,32.75,0,0,0,3.56,4.41c.31.33.63.64.95.94.64.61,1.29,1.18,1.95,1.7.33.26.66.52,1,.76a26.69,26.69,0,0,0,3.06,1.92c.34.18.68.36,1,.53.68.33,1.37.63,2.06.89a22.9,22.9,0,0,0,8,1.52c10.14,0,23.56-7.64,28.17-28.56,1.86-8.42,1.12-15.31.24-21.14-.19-1.29-.39-2.54-.58-3.74-.09-.6-.17-1.18-.25-1.76a34.43,34.43,0,0,1-.39-4.91c0-.52,0-1,.07-1.53a18.36,18.36,0,0,1,.42-2.67,16.51,16.51,0,0,1,.55-1.87,12.42,12.42,0,0,1,.83-1.82,8.66,8.66,0,0,1,8.05-4.75,10,10,0,0,1,4,.79A9.55,9.55,0,0,1,258,84a14.2,14.2,0,0,1,4,5.63,24.81,24.81,0,0,1,1,3A47.92,47.92,0,0,1,264.62,105c0,1.27,0,2.55-.06,3.84s-.14,2.56-.25,3.83a79.27,79.27,0,0,1-1.71,10.78c-.38,1.63-.8,3.16-1.26,4.54a54.09,54.09,0,0,1-7.8,15.13q-1.65,2.25-3.5,4.31c-1.23,1.36-2.52,2.66-3.86,3.88s-2.73,2.37-4.16,3.44a52.39,52.39,0,0,1-9,5.43,52.39,52.39,0,0,1,9,5.43,55.84,55.84,0,0,1,8,7.32l.13.16A20.59,20.59,0,0,1,269.71,159H384.58V76.84H57v168.5H215a15.17,15.17,0,0,1,15.16-15.14h12.14a18,18,0,0,1-.43-2.72A25.34,25.34,0,0,1,242,222.74Zm-27.37-122A14.65,14.65,0,1,1,200,115.35,14.63,14.63,0,0,1,214.63,100.71Z" transform="translate(-45 -45)"/><path class="cls-5" d="M390.59,171H269.71a8.57,8.57,0,0,0-8.56,8.55v1.65h138V179.5A8.57,8.57,0,0,0,390.59,171Z" transform="translate(-45 -45)"/><path class="cls-5" d="M370.74,57H70.84a13.84,13.84,0,0,0-12.45,7.84H383.2A13.85,13.85,0,0,0,370.74,57Z" transform="translate(-45 -45)"/><path class="cls-5" d="M70.84,266H215v-8.64H58A13.85,13.85,0,0,0,70.84,266Z" transform="translate(-45 -45)"/><polygon class="cls-5" points="117.48 243.46 170.02 243.46 170.02 232.98 127.22 232.98 117.48 243.46"/><path class="cls-5" d="M262.23,230.2h32.45a15.17,15.17,0,0,1,15.16,15.15v66.59h89.31V193.15H261.57" transform="translate(-45 -45)"/><circle class="cls-1" cx="214.63" cy="115.35" r="14.65" transform="translate(-41.34 192.28) rotate(-58.28)"/><path class="cls-2" d="M194.23,161.24l-.65.35Z" transform="translate(-45 -45)"/><path class="cls-2" d="M192.18,162.39c-.37.21-.74.44-1.1.66C191.44,162.82,191.81,162.6,192.18,162.39Z" transform="translate(-45 -45)"/><path class="cls-2" d="M189.88,163.81l-1.19.81Z" transform="translate(-45 -45)"/><path class="cls-2" d="M175.72,143.16c1.1,1.5,2.27,2.94,3.49,4.31C178,146.1,176.82,144.66,175.72,143.16Z" transform="translate(-45 -45)"/><path class="cls-2" d="M188.23,165c-1.41,1-2.78,2.08-4.1,3.22C185.45,167,186.82,166,188.23,165Z" transform="translate(-45 -45)"/><path class="cls-2" d="M183.07,151.35a54.51,54.51,0,0,0,8.58,6.4A54.51,54.51,0,0,1,183.07,151.35Z" transform="translate(-45 -45)"/><path class="cls-2" d="M186.46,103.25c.12-.71.23-1.41.33-2.09C186.69,101.84,186.58,102.54,186.46,103.25Z" transform="translate(-45 -45)"/><path class="cls-2" d="M170,133.42a54.19,54.19,0,0,0,5.71,9.74A54.19,54.19,0,0,1,170,133.42Z" transform="translate(-45 -45)"/><path class="cls-2" d="M235.22,177.05l.1.14Z" transform="translate(-45 -45)"/><path class="cls-2" d="M227.25,169.66l.12.07Z" transform="translate(-45 -45)"/><path class="cls-2" d="M236.41,178.73c.07.11.14.21.2.32C236.55,178.94,236.48,178.84,236.41,178.73Z" transform="translate(-45 -45)"/><path class="cls-2" d="M234,175.48l.23.27Z" transform="translate(-45 -45)"/><path class="cls-2" d="M231.36,172.79l.15.15Z" transform="translate(-45 -45)"/><path class="cls-2" d="M230.06,171.67l.12.1Z" transform="translate(-45 -45)"/><path class="cls-2" d="M242.46,101.16c.19,1.2.39,2.45.58,3.74C242.85,103.61,242.65,102.36,242.46,101.16Z" transform="translate(-45 -45)"/><path class="cls-2" d="M250,147.47q1.85-2.06,3.5-4.31Q251.89,145.41,250,147.47Z" transform="translate(-45 -45)"/><path class="cls-2" d="M262.6,123.49a79.27,79.27,0,0,0,1.71-10.78A79.27,79.27,0,0,1,262.6,123.49Z" transform="translate(-45 -45)"/><path class="cls-2" d="M242,154.79q2.14-1.6,4.16-3.44Q244.17,153.18,242,154.79Z" transform="translate(-45 -45)"/><line class="cls-2" x1="216.57" y1="148.15" x2="216.57" y2="148.15"/><path class="cls-2" d="M193,141.93a37.51,37.51,0,0,1-2.37-4A37.51,37.51,0,0,0,193,141.93Z" transform="translate(-45 -45)"/><path class="cls-2" d="M264.31,112.71c.11-1.27.2-2.55.25-3.83C264.51,110.16,264.42,111.44,264.31,112.71Z" transform="translate(-45 -45)"/><path class="cls-2" d="M199.45,149c-.66-.52-1.31-1.09-1.95-1.7C198.14,147.89,198.79,148.46,199.45,149Z" transform="translate(-45 -45)"/><path class="cls-2" d="M196.55,146.34a32.75,32.75,0,0,1-3.56-4.41A32.75,32.75,0,0,0,196.55,146.34Z" transform="translate(-45 -45)"/><path class="cls-2" d="M203.5,151.66a26.69,26.69,0,0,1-3.06-1.92A26.69,26.69,0,0,0,203.5,151.66Z" transform="translate(-45 -45)"/><path class="cls-2" d="M264.56,108.88c.05-1.29.08-2.57.06-3.84C264.64,106.31,264.61,107.59,264.56,108.88Z" transform="translate(-45 -45)"/><path class="cls-2" d="M206.59,153.08c-.69-.26-1.38-.56-2.06-.89C205.21,152.52,205.9,152.82,206.59,153.08Z" transform="translate(-45 -45)"/><path class="cls-2" d="M237.46,180.4l.23.4Z" transform="translate(-45 -45)"/><path class="cls-2" d="M167.91,192.41c-4.83,14.71-6.29,46.19,9.61,46.19,7.31,0,9.47-6.68,9.85-11.12.3-3.57-.51-7.56-1.2-12.21h-6.5a7.27,7.27,0,1,1,0-14.54h5.83a48.47,48.47,0,0,1,.9-6.07h-1.15a7.27,7.27,0,1,1,0-14.53H192c6.19-10.25,15.29-14.28,22.67-14.28a23.3,23.3,0,0,1,9.82,2.28v-.07a51.21,51.21,0,0,0-40.32.11A54.91,54.91,0,0,0,167.91,192.41Z" transform="translate(-45 -45)"/><path class="cls-2" d="M183.07,151.35c-1.34-1.22-2.63-2.52-3.86-3.88C180.44,148.83,181.73,150.13,183.07,151.35Z" transform="translate(-45 -45)"/><path class="cls-2" d="M196.26,160.22h0q-2.34-1.11-4.61-2.47,2.26,1.37,4.61,2.47Z" transform="translate(-45 -45)"/><path class="cls-2" d="M242,191.38l.18.65Z" transform="translate(-45 -45)"/><path class="cls-2" d="M241.35,189.1c.06.16.11.33.16.5C241.46,189.43,241.41,189.26,241.35,189.1Z" transform="translate(-45 -45)"/><path class="cls-2" d="M262.6,123.49c-.38,1.63-.8,3.16-1.26,4.54a54.09,54.09,0,0,1-7.8,15.13,54.09,54.09,0,0,0,7.8-15.13C261.8,126.65,262.22,125.12,262.6,123.49Z" transform="translate(-45 -45)"/><path class="cls-2" d="M250,147.47c-1.23,1.36-2.52,2.66-3.86,3.88C247.52,150.13,248.81,148.83,250,147.47Z" transform="translate(-45 -45)"/><path class="cls-2" d="M242.21,99.4a34.43,34.43,0,0,1-.39-4.91A34.43,34.43,0,0,0,242.21,99.4Z" transform="translate(-45 -45)"/><path class="cls-2" d="M187.43,94.49v0Z" transform="translate(-45 -45)"/><path class="cls-2" d="M238.66,182.57a.59.59,0,0,0,0,.08A.59.59,0,0,1,238.66,182.57Z" transform="translate(-45 -45)"/><path class="cls-2" d="M239.55,184.43c.08.17.15.35.23.53C239.7,184.78,239.63,184.6,239.55,184.43Z" transform="translate(-45 -45)"/><path class="cls-2" d="M240.45,186.58c.05.14.11.27.16.41C240.56,186.85,240.5,186.72,240.45,186.58Z" transform="translate(-45 -45)"/><path class="cls-3" d="M227.37,169.73a28,28,0,0,1,2.69,1.94A28,28,0,0,0,227.37,169.73Z" transform="translate(-45 -45)"/><path class="cls-3" d="M263,92.58a24.81,24.81,0,0,0-1-3A24.81,24.81,0,0,1,263,92.58Z" transform="translate(-45 -45)"/><path class="cls-3" d="M234.18,175.75c.35.42.7.85,1,1.3C234.88,176.6,234.53,176.17,234.18,175.75Z" transform="translate(-45 -45)"/><polygon class="cls-3" points="139.13 123.17 139.13 123.17 139.13 123.17 139.13 123.17"/><path class="cls-3" d="M239.78,185c.23.52.45,1.06.67,1.62C240.23,186,240,185.48,239.78,185Z" transform="translate(-45 -45)"/><path class="cls-3" d="M242,154.79a52.39,52.39,0,0,1-9,5.43,52.39,52.39,0,0,1,9,5.43,52.39,52.39,0,0,0-9-5.43A52.39,52.39,0,0,0,242,154.79Z" transform="translate(-45 -45)"/><path class="cls-3" d="M243.69,86.6a12.42,12.42,0,0,0-.83,1.82A12.42,12.42,0,0,1,243.69,86.6Z" transform="translate(-45 -45)"/><path class="cls-3" d="M258,84a9.55,9.55,0,0,0-2.21-1.33A9.55,9.55,0,0,1,258,84Z" transform="translate(-45 -45)"/><path class="cls-3" d="M187.37,93A17.17,17.17,0,0,0,186,87.49,17.17,17.17,0,0,1,187.37,93q.06.75.06,1.53Q187.43,93.71,187.37,93Z" transform="translate(-45 -45)"/><path class="cls-3" d="M235.32,177.19c.37.49.74,1,1.09,1.54C236.06,178.2,235.69,177.68,235.32,177.19Z" transform="translate(-45 -45)"/><path class="cls-3" d="M185.34,113.34a50.72,50.72,0,0,0,.23,7.3A50.72,50.72,0,0,1,185.34,113.34Z" transform="translate(-45 -45)"/><path class="cls-3" d="M241.82,94.49c0-.52,0-1,.07-1.53a18.36,18.36,0,0,1,.42-2.67,18.36,18.36,0,0,0-.42,2.67C241.84,93.46,241.82,94,241.82,94.49Z" transform="translate(-45 -45)"/><path class="cls-3" d="M250.17,173.13h0L250,173Z" transform="translate(-45 -45)"/><path class="cls-3" d="M238.7,182.65c.29.58.57,1.17.85,1.78C239.27,183.82,239,183.23,238.7,182.65Z" transform="translate(-45 -45)"/><path class="cls-3" d="M236.61,179.05c.29.44.57.89.85,1.35C237.18,179.94,236.9,179.49,236.61,179.05Z" transform="translate(-45 -45)"/><line class="cls-3" x1="217.23" y1="185.2" x2="217.23" y2="185.2"/><path class="cls-3" d="M191.08,163.05c-.41.25-.81.5-1.2.76C190.27,163.55,190.67,163.3,191.08,163.05Z" transform="translate(-45 -45)"/><path class="cls-3" d="M193.58,161.59c-.47.26-.94.52-1.4.8C192.64,162.11,193.11,161.85,193.58,161.59Z" transform="translate(-45 -45)"/><path class="cls-3" d="M242.22,192c.2.77.4,1.56.58,2.37C242.62,193.59,242.42,192.8,242.22,192Z" transform="translate(-45 -45)"/><path class="cls-3" d="M243.78,209.34c-.11,1.46-.27,2.87-.45,4.22C243.51,212.21,243.67,210.8,243.78,209.34Z" transform="translate(-45 -45)"/><path class="cls-3" d="M196.26,160.22c-.68.32-1.36.67-2,1C194.9,160.89,195.58,160.54,196.26,160.22Z" transform="translate(-45 -45)"/><path class="cls-3" d="M227.25,169.66a26.6,26.6,0,0,0-2.8-1.53h0A26.6,26.6,0,0,1,227.25,169.66Z" transform="translate(-45 -45)"/><path class="cls-3" d="M240.61,187c.26.69.51,1.39.74,2.11C241.12,188.38,240.87,187.68,240.61,187Z" transform="translate(-45 -45)"/><path class="cls-3" d="M188.69,164.62l-.46.33Z" transform="translate(-45 -45)"/><path class="cls-3" d="M241.51,189.6c.19.58.36,1.18.53,1.78C241.87,190.78,241.7,190.18,241.51,189.6Z" transform="translate(-45 -45)"/><path class="cls-3" d="M237.69,180.8c.33.57.66,1.16,1,1.77C238.35,182,238,181.37,237.69,180.8Z" transform="translate(-45 -45)"/><path class="cls-3" d="M230.18,171.77c.4.33.79.67,1.18,1C231,172.44,230.58,172.1,230.18,171.77Z" transform="translate(-45 -45)"/><path class="cls-3" d="M243.33,213.56c-.18,1.34-.39,2.64-.58,3.89C242.94,216.2,243.15,214.9,243.33,213.56Z" transform="translate(-45 -45)"/><path class="cls-3" d="M185.34,113.34c.06-1.52.18-3,.33-4.39C185.52,110.36,185.4,111.82,185.34,113.34Z" transform="translate(-45 -45)"/><path class="cls-3" d="M185.67,109c.22-2,.51-3.9.79-5.7C186.18,105.05,185.89,106.94,185.67,109Z" transform="translate(-45 -45)"/><path class="cls-3" d="M234,175.48a29.56,29.56,0,0,0-2.44-2.54A29.56,29.56,0,0,1,234,175.48Z" transform="translate(-45 -45)"/><path class="cls-3" d="M242.75,217.45c-.29,1.86-.57,3.62-.75,5.29C242.18,221.07,242.46,219.31,242.75,217.45Z" transform="translate(-45 -45)"/><path class="cls-3" d="M186,87.49a11.48,11.48,0,0,0-1.58-2.56A11.48,11.48,0,0,1,186,87.49Z" transform="translate(-45 -45)"/><path class="cls-3" d="M187.05,99.4a36.82,36.82,0,0,0,.38-4.87A36.82,36.82,0,0,1,187.05,99.4Z" transform="translate(-45 -45)"/><path class="cls-3" d="M249.15,179.5a20.67,20.67,0,0,1,1-6.37L250,173a55.84,55.84,0,0,0-8-7.32,52.39,52.39,0,0,0-9-5.43,52.39,52.39,0,0,0,9-5.43q2.14-1.6,4.16-3.44c1.34-1.22,2.63-2.52,3.86-3.88s2.4-2.81,3.5-4.31a54.09,54.09,0,0,0,7.8-15.13c.46-1.38.88-2.91,1.26-4.54a79.27,79.27,0,0,0,1.71-10.78c.11-1.27.2-2.55.25-3.83s.08-2.57.06-3.84A47.92,47.92,0,0,0,263,92.58a24.81,24.81,0,0,0-1-3A14.2,14.2,0,0,0,258,84a9.55,9.55,0,0,0-2.21-1.33,10,10,0,0,0-4-.79,8.66,8.66,0,0,0-8.05,4.75,12.42,12.42,0,0,0-.83,1.82,16.51,16.51,0,0,0-.55,1.87,18.36,18.36,0,0,0-.42,2.67c0,.5-.07,1-.07,1.53a34.43,34.43,0,0,0,.39,4.91c.08.58.16,1.16.25,1.76.19,1.2.39,2.45.58,3.74.88,5.83,1.62,12.72-.24,21.14-4.61,20.92-18,28.56-28.17,28.56a22.9,22.9,0,0,1-8-1.52c-.69-.26-1.38-.56-2.06-.89-.35-.17-.69-.35-1-.53a26.69,26.69,0,0,1-3.06-1.92c-.33-.24-.66-.5-1-.76-.66-.52-1.31-1.09-1.95-1.7-.32-.3-.64-.61-.95-.94a32.75,32.75,0,0,1-3.56-4.41,37.51,37.51,0,0,1-2.37-4,51.4,51.4,0,0,1-5.05-17.28,50.72,50.72,0,0,1-.23-7.3c.06-1.52.18-3,.33-4.39.22-2,.51-3.9.79-5.7.12-.71.23-1.41.33-2.09s.18-1.18.26-1.76a36.82,36.82,0,0,0,.38-4.87v0q0-.78-.06-1.53A17.17,17.17,0,0,0,186,87.49a11.48,11.48,0,0,0-1.58-2.56,8.56,8.56,0,0,0-6.92-3.08c-15.9,0-14.44,31.47-9.61,46.18a53.86,53.86,0,0,0,7.81,15.13c1.1,1.5,2.27,2.94,3.49,4.31s2.52,2.66,3.86,3.88a54.51,54.51,0,0,0,8.58,6.4q2.26,1.37,4.61,2.47h0c-.68.32-1.36.67-2,1l-.65.35c-.47.26-.94.52-1.4.8s-.74.43-1.1.66-.81.5-1.2.76l-1.19.81-.46.33c-1.41,1-2.78,2.08-4.1,3.22h0a51.21,51.21,0,0,1,40.32-.11v.07a26.6,26.6,0,0,1,2.8,1.53l.12.07a28,28,0,0,1,2.69,1.94l.12.1c.4.33.79.67,1.18,1l.15.15a29.56,29.56,0,0,1,2.44,2.54l.23.27c.35.42.7.85,1,1.3l.1.14c.37.49.74,1,1.09,1.54.07.11.14.21.2.32.29.44.57.89.85,1.35l.23.4c.33.57.66,1.16,1,1.77a.59.59,0,0,0,0,.08c.29.58.57,1.17.85,1.78.08.17.15.35.23.53.23.52.45,1.06.67,1.62.05.14.11.27.16.41.26.69.51,1.39.74,2.11.06.16.11.33.16.5.19.58.36,1.18.53,1.78l.18.65c.2.77.4,1.56.58,2.37a50,50,0,0,1,1,14.94c-.11,1.46-.27,2.87-.45,4.22s-.39,2.64-.58,3.89c-.29,1.86-.57,3.62-.75,5.29a25.34,25.34,0,0,0-.11,4.74,18,18,0,0,0,.43,2.72h6.83Z" transform="translate(-45 -45)"/><line class="cls-3" x1="216.15" y1="148.15" x2="216.15" y2="185.2"/><path class="cls-4" d="M186.4,194.66h36a7.27,7.27,0,1,0,0-14.53H192a46.77,46.77,0,0,0-5.51,14.27C186.43,194.49,186.42,194.57,186.4,194.66Z" transform="translate(-45 -45)"/><path class="cls-4" d="M178,187.39a7.26,7.26,0,0,0,7.27,7.27h1.15c0-.09,0-.17,0-.26A46.77,46.77,0,0,1,192,180.13h-6.71A7.26,7.26,0,0,0,178,187.39Z" transform="translate(-45 -45)"/><path class="cls-4" d="M186.17,215.27h37.54a7.27,7.27,0,0,0,0-14.54H185.5A60.45,60.45,0,0,0,186.17,215.27Z" transform="translate(-45 -45)"/><path class="cls-4" d="M172.4,208a7.27,7.27,0,0,0,7.27,7.27h6.5a60.45,60.45,0,0,1-.67-14.54h-5.83A7.27,7.27,0,0,0,172.4,208Z" transform="translate(-45 -45)"/><path class="cls-1" d="M396.59,159.84v-89A25.88,25.88,0,0,0,370.74,45H70.84A25.87,25.87,0,0,0,45,70.84V252.15A25.86,25.86,0,0,0,70.84,278h85l-9.74,10.48H131.53a6,6,0,0,0,0,12H215v57.86a15.18,15.18,0,0,0,15.16,15.16h64.5a15.18,15.18,0,0,0,15.16-15.16V346.14h80.75a20.59,20.59,0,0,0,20.56-20.57V179.5A20.6,20.6,0,0,0,396.59,159.84ZM70.84,57h299.9a13.85,13.85,0,0,1,12.46,7.84H58.39A13.84,13.84,0,0,1,70.84,57ZM215,288.46H162.48L172.21,278H215ZM215,266H70.84A13.85,13.85,0,0,1,58,257.34H215Zm82.82,92.34a3.16,3.16,0,0,1-3.16,3.16h-64.5a3.15,3.15,0,0,1-3.16-3.16v-7.88h70.82Zm0-19.88H227v-73.2h70.82Zm0-85.2H227v-7.89a3.15,3.15,0,0,1,3.16-3.15h64.5a3.16,3.16,0,0,1,3.16,3.15Zm101.31,72.34a8.57,8.57,0,0,1-8.56,8.56H309.84v-10.2h89.31Zm0-13.64H309.84V245.35a15.17,15.17,0,0,0-15.16-15.15H262.23c-.08.21-.16.44-.25.65a14.24,14.24,0,0,1-4,5.62,9.55,9.55,0,0,1-2.21,1.33,10,10,0,0,1-4,.8c-5.93,0-8.47-4.38-9.42-8.4H230.18A15.17,15.17,0,0,0,215,245.34H57V76.84H384.58V159H269.71a20.59,20.59,0,0,0-19.54,14.18c1.18,1.32,2.31,2.7,3.37,4.15a54.61,54.61,0,0,1,7.8,15.13c.08.24.16.49.23.74H399.15Zm0-130.79h-138V179.5a8.57,8.57,0,0,1,8.56-8.55H390.59a8.57,8.57,0,0,1,8.56,8.55Z" transform="translate(-45 -45)"/><path class="cls-6" d="M261.57,193.15h0c-.07-.25-.15-.5-.23-.74A53.3,53.3,0,0,0,256.62,182a53.3,53.3,0,0,1,4.72,10.44C261.42,192.65,261.5,192.9,261.57,193.15Z" transform="translate(-45 -45)"/><path class="cls-6" d="M262,230.85c.09-.21.17-.44.25-.65h0C262.15,230.41,262.07,230.64,262,230.85Z" transform="translate(-45 -45)"/><path class="cls-6" d="M253.54,177.28a53.38,53.38,0,0,1,3.08,4.69A53.38,53.38,0,0,0,253.54,177.28Z" transform="translate(-45 -45)"/><path class="cls-6" d="M258,236.47a9.55,9.55,0,0,1-2.21,1.33A9.55,9.55,0,0,0,258,236.47Z" transform="translate(-45 -45)"/><path class="cls-6" d="M253.54,177.28c-1.06-1.45-2.19-2.83-3.37-4.15h0C251.35,174.45,252.48,175.83,253.54,177.28Z" transform="translate(-45 -45)"/><path class="cls-1" d="M261.15,230.2v-37h.42c-.07-.25-.15-.5-.23-.74a54.61,54.61,0,0,0-7.8-15.13c-1.06-1.45-2.19-2.83-3.37-4.15a20.67,20.67,0,0,0-1,6.37v50.7h-6.83c1,4,3.49,8.4,9.42,8.4a10,10,0,0,0,4-.8,9.55,9.55,0,0,0,2.21-1.33,14.24,14.24,0,0,0,4-5.62c.09-.21.17-.44.25-.65Z" transform="translate(-45 -45)"/></g></svg>