<svg id="Calque_2" data-name="Calque 2" xmlns="http://www.w3.org/2000/svg" viewBox="0 0 409.6 409.6"><defs><style>.cls-1{fill:#f2c03c;}</style></defs><title>skyscraper-jaune</title><path class="cls-1" d="M303.41,279.24a6.83,6.83,0,1,0-13.65,0V292.9a6.83,6.83,0,0,0,13.65,0Zm0,0" transform="translate(-44 -13)"/><path class="cls-1" d="M296.59,354.33a6.83,6.83,0,0,0-6.83,6.83v27.31a6.83,6.83,0,0,0,13.65,0V361.16a6.82,6.82,0,0,0-6.82-6.83Zm0,0" transform="translate(-44 -13)"/><path class="cls-1" d="M330.72,197.32a6.83,6.83,0,1,0-13.65,0V211a6.83,6.83,0,1,0,13.65,0Zm0,0" transform="translate(-44 -13)"/><path class="cls-1" d="M303.41,238.28a6.83,6.83,0,1,0-13.65,0v13.65a6.83,6.83,0,1,0,13.65,0Zm0,0" transform="translate(-44 -13)"/><path class="cls-1" d="M303.41,320.2a6.83,6.83,0,0,0-13.65,0v13.66a6.83,6.83,0,0,0,13.65,0Zm0,0" transform="translate(-44 -13)"/><path class="cls-1" d="M330.72,238.28a6.83,6.83,0,1,0-13.65,0v13.65a6.83,6.83,0,1,0,13.65,0Zm0,0" transform="translate(-44 -13)"/><path class="cls-1" d="M276.1,197.32a6.83,6.83,0,1,0-13.65,0V211a6.83,6.83,0,1,0,13.65,0Zm0,0" transform="translate(-44 -13)"/><path class="cls-1" d="M303.41,197.32a6.83,6.83,0,1,0-13.65,0V211a6.83,6.83,0,1,0,13.65,0Zm0,0" transform="translate(-44 -13)"/><path class="cls-1" d="M330.72,129.06V115.4a6.83,6.83,0,1,0-13.65,0v13.66a6.83,6.83,0,0,0,13.65,0Zm0,0" transform="translate(-44 -13)"/><path class="cls-1" d="M276.1,238.28a6.83,6.83,0,1,0-13.65,0v13.65a6.83,6.83,0,1,0,13.65,0Zm0,0" transform="translate(-44 -13)"/><path class="cls-1" d="M358,115.4a6.83,6.83,0,1,0-13.65,0v13.66a6.83,6.83,0,0,0,13.65,0Zm0,0" transform="translate(-44 -13)"/><path class="cls-1" d="M269.28,272.41a6.83,6.83,0,0,0-6.83,6.83V292.9a6.83,6.83,0,0,0,13.65,0V279.24a6.82,6.82,0,0,0-6.82-6.83Zm0,0" transform="translate(-44 -13)"/><path class="cls-1" d="M385.33,320.2a6.83,6.83,0,0,0-13.65,0v13.66a6.83,6.83,0,0,0,13.65,0Zm0,0" transform="translate(-44 -13)"/><path class="cls-1" d="M378.51,354.33a6.83,6.83,0,0,0-6.83,6.83v27.31a6.83,6.83,0,0,0,13.65,0V361.16a6.83,6.83,0,0,0-6.82-6.83Zm0,0" transform="translate(-44 -13)"/><path class="cls-1" d="M405.81,272.41a6.83,6.83,0,0,0-6.82,6.83V292.9a6.83,6.83,0,0,0,13.65,0V279.24a6.83,6.83,0,0,0-6.83-6.83Zm0,0" transform="translate(-44 -13)"/><path class="cls-1" d="M296.59,135.88a6.82,6.82,0,0,0,6.82-6.82V100.25l68.27-17.07V197.32a6.85,6.85,0,0,0,4.43,6.4l50.18,18.81V292.9a6.83,6.83,0,0,0,13.65,0V217.8a6.84,6.84,0,0,0-4.42-6.4l-50.19-18.81V60.79a6.83,6.83,0,1,0-13.65,0v8.32L294.93,88.3a6.82,6.82,0,0,0-5.17,6.62v34.14a6.83,6.83,0,0,0,6.83,6.82Zm0,0" transform="translate(-44 -13)"/><path class="cls-1" d="M412.64,238.28a6.83,6.83,0,1,0-13.65,0v13.65a6.83,6.83,0,1,0,13.65,0Zm0,0" transform="translate(-44 -13)"/><path class="cls-1" d="M385.33,238.28a6.83,6.83,0,1,0-13.65,0v13.65a6.83,6.83,0,1,0,13.65,0Zm0,0" transform="translate(-44 -13)"/><path class="cls-1" d="M330.72,320.2a6.83,6.83,0,0,0-13.65,0v13.66a6.83,6.83,0,0,0,13.65,0Zm0,0" transform="translate(-44 -13)"/><path class="cls-1" d="M385.33,279.24a6.83,6.83,0,1,0-13.65,0V292.9a6.83,6.83,0,0,0,13.65,0Zm0,0" transform="translate(-44 -13)"/><path class="cls-1" d="M323.89,354.33a6.82,6.82,0,0,0-6.82,6.83v27.31a6.83,6.83,0,0,0,13.65,0V361.16a6.83,6.83,0,0,0-6.83-6.83Zm0,0" transform="translate(-44 -13)"/><path class="cls-1" d="M330.72,279.24a6.83,6.83,0,1,0-13.65,0V292.9a6.83,6.83,0,0,0,13.65,0Zm0,0" transform="translate(-44 -13)"/><path class="cls-1" d="M351.2,395.29a6.83,6.83,0,0,0,6.83-6.82V170a6.83,6.83,0,0,0-5.17-6.62l-109.23-27.3a6.83,6.83,0,0,0-8.49,6.62V292.9a6.83,6.83,0,0,0,13.66,0V151.45l95.57,23.89V388.47a6.84,6.84,0,0,0,6.83,6.82Zm0,0" transform="translate(-44 -13)"/><path class="cls-1" d="M194.19,156.36a6.83,6.83,0,0,0-13.66,0V170a6.83,6.83,0,1,0,13.66,0Zm0,0" transform="translate(-44 -13)"/><path class="cls-1" d="M194.19,115.4a6.83,6.83,0,1,0-13.66,0v13.66a6.83,6.83,0,0,0,13.66,0Zm0,0" transform="translate(-44 -13)"/><path class="cls-1" d="M139.57,320.2a6.83,6.83,0,0,0-13.65,0v13.66a6.83,6.83,0,0,0,13.65,0Zm0,0" transform="translate(-44 -13)"/><path class="cls-1" d="M78.13,258.76A6.83,6.83,0,0,0,85,251.93V217.8h68.27V388.47a6.83,6.83,0,0,0,13.65,0V211a6.83,6.83,0,0,0-6.83-6.82H78.13A6.83,6.83,0,0,0,71.3,211v41a6.83,6.83,0,0,0,6.83,6.83Zm0,0" transform="translate(-44 -13)"/><path class="cls-1" d="M153.23,156.36V170a6.83,6.83,0,1,0,13.65,0V156.36a6.83,6.83,0,0,0-13.65,0Zm0,0" transform="translate(-44 -13)"/><path class="cls-1" d="M194.19,74.44a6.83,6.83,0,1,0-13.66,0V88.09a6.83,6.83,0,1,0,13.66,0Zm0,0" transform="translate(-44 -13)"/><path class="cls-1" d="M132.75,354.33a6.83,6.83,0,0,0-6.83,6.83v27.31a6.83,6.83,0,0,0,13.65,0V361.16a6.82,6.82,0,0,0-6.82-6.83Zm0,0" transform="translate(-44 -13)"/><path class="cls-1" d="M446.77,409H433.12V367a27.31,27.31,0,1,0-13.65,0V409H248.8V381a34.13,34.13,0,1,0-13.66,0v28H85V340a34.13,34.13,0,1,0-13.66,0v69H50.83a6.83,6.83,0,1,0,0,13.65H446.77a6.83,6.83,0,1,0,0-13.65ZM57.65,306.55A20.48,20.48,0,1,1,78.13,327a20.5,20.5,0,0,1-20.48-20.48Zm163.84,41A20.48,20.48,0,1,1,242,368a20.51,20.51,0,0,1-20.48-20.48Zm191.15-6.83a13.65,13.65,0,1,1,13.65,13.65,13.66,13.66,0,0,1-13.65-13.65Zm0,0" transform="translate(-44 -13)"/><path class="cls-1" d="M98.61,361.16v27.31a6.83,6.83,0,0,0,13.66,0V361.16a6.83,6.83,0,1,0-13.66,0Zm0,0" transform="translate(-44 -13)"/><path class="cls-1" d="M139.57,238.28a6.83,6.83,0,1,0-13.65,0v13.65a6.83,6.83,0,1,0,13.65,0Zm0,0" transform="translate(-44 -13)"/><path class="cls-1" d="M139.57,279.24a6.83,6.83,0,1,0-13.65,0V292.9a6.83,6.83,0,0,0,13.65,0Zm0,0" transform="translate(-44 -13)"/><path class="cls-1" d="M98.61,238.28v13.65a6.83,6.83,0,0,0,13.66,0V238.28a6.83,6.83,0,0,0-13.66,0Zm0,0" transform="translate(-44 -13)"/><path class="cls-1" d="M194.19,279.24a6.83,6.83,0,1,0-13.66,0V292.9a6.83,6.83,0,0,0,13.66,0Zm0,0" transform="translate(-44 -13)"/><path class="cls-1" d="M221.49,197.32a6.83,6.83,0,1,0-13.65,0V211a6.83,6.83,0,1,0,13.65,0Zm0,0" transform="translate(-44 -13)"/><path class="cls-1" d="M221.49,156.36a6.83,6.83,0,0,0-13.65,0V170a6.83,6.83,0,1,0,13.65,0Zm0,0" transform="translate(-44 -13)"/><path class="cls-1" d="M221.49,238.28a6.83,6.83,0,1,0-13.65,0v13.65a6.83,6.83,0,1,0,13.65,0Zm0,0" transform="translate(-44 -13)"/><path class="cls-1" d="M214.67,272.41a6.83,6.83,0,0,0-6.83,6.83V292.9a6.83,6.83,0,0,0,13.65,0V279.24a6.83,6.83,0,0,0-6.82-6.83Zm0,0" transform="translate(-44 -13)"/><path class="cls-1" d="M221.49,115.4a6.83,6.83,0,1,0-13.65,0v13.66a6.83,6.83,0,0,0,13.65,0Zm0,0" transform="translate(-44 -13)"/><path class="cls-1" d="M194.19,320.2a6.83,6.83,0,0,0-13.66,0v13.66a6.83,6.83,0,0,0,13.66,0Zm0,0" transform="translate(-44 -13)"/><path class="cls-1" d="M132.75,190.49a6.82,6.82,0,0,0,6.82-6.82v-50.4l23.53-11.76a6.82,6.82,0,0,0,3.78-6.11V58.18L201,41.11l34.13,17.07V115.4a6.83,6.83,0,0,0,13.66,0V54A6.82,6.82,0,0,0,245,47.85L207.84,29.26V19.83a6.83,6.83,0,1,0-13.65,0v9.43L157,47.85A6.83,6.83,0,0,0,153.23,54v57.22l-23.54,11.76a6.83,6.83,0,0,0-3.77,6.11v54.61a6.83,6.83,0,0,0,6.83,6.83Zm0,0" transform="translate(-44 -13)"/><path class="cls-1" d="M194.19,238.28a6.83,6.83,0,1,0-13.66,0v13.65a6.83,6.83,0,1,0,13.66,0Zm0,0" transform="translate(-44 -13)"/><path class="cls-1" d="M187.36,354.33a6.83,6.83,0,0,0-6.83,6.83v27.31a6.83,6.83,0,0,0,13.66,0V361.16a6.83,6.83,0,0,0-6.83-6.83Zm0,0" transform="translate(-44 -13)"/><path class="cls-1" d="M221.49,74.44a6.83,6.83,0,1,0-13.65,0V88.09a6.83,6.83,0,1,0,13.65,0Zm0,0" transform="translate(-44 -13)"/><path class="cls-1" d="M194.19,197.32a6.83,6.83,0,1,0-13.66,0V211a6.83,6.83,0,1,0,13.66,0Zm0,0" transform="translate(-44 -13)"/></svg>