<svg id="Calque_1" data-name="Calque 1" xmlns="http://www.w3.org/2000/svg" viewBox="0 0 396.93 396.92"><defs><style>.cls-1{fill:#f2c03c;}.cls-2{fill:#fff;}</style></defs><title>three</title><path class="cls-1" d="M959.46,342C849.85,342,761,430.85,761,540.46s88.85,198.46,198.46,198.46,198.47-88.85,198.47-198.46S1069.07,342,959.46,342Zm0,0" transform="translate(-761 -342)"/><path class="cls-2" d="M1016.71,557.77a43.39,43.39,0,0,0-9.43-14,64.82,64.82,0,0,0-15.41-11.25,67.67,67.67,0,0,0,14.59-16.35q5.09-8.37,5.09-20.09a39.76,39.76,0,0,0-3.51-16.64,38.84,38.84,0,0,0-10.44-13.6,48.41,48.41,0,0,0-16.28-9,65.72,65.72,0,0,0-20.75-3.11A71,71,0,0,0,937,457.45a54.15,54.15,0,0,0-17.63,9.79,47,47,0,0,0-10.79,12.83,26.78,26.78,0,0,0-3.69,12.83A13.48,13.48,0,0,0,908.84,503a12.12,12.12,0,0,0,8.61,3.81,16.59,16.59,0,0,0,7-1.41,8.26,8.26,0,0,0,4.22-3.87q2-4.56,4.39-9.72a39.58,39.58,0,0,1,5.1-8.44,18.85,18.85,0,0,1,7.33-5.27,29.89,29.89,0,0,1,11.77-2q10.55,0,16.76,6.51a21.69,21.69,0,0,1,6.21,15.53q0,11.83-7.79,18.16a28.56,28.56,0,0,1-18.58,6.33h-4.8q-8.33,0-12.54,3.45a11.2,11.2,0,0,0-4.22,9.09q0,5.74,3.52,9t10,3.22q1.41,0,6.33-.46c3.28-.32,5.7-.47,7.26-.47q13.36,0,20.86,7.79t7.5,21.5A30,30,0,0,1,983.37,592a29.13,29.13,0,0,1-11.14,10.61,29.52,29.52,0,0,1-14,3.57q-12.66,0-19.63-7.91t-13.07-24.2a9.13,9.13,0,0,0-4-4.63,11.71,11.71,0,0,0-6.32-1.93,15.33,15.33,0,0,0-11,4.16,14.39,14.39,0,0,0-4.4,11q0,5.26,3.7,13.36a57.6,57.6,0,0,0,29.23,28.24,60.48,60.48,0,0,0,25.2,5,69.8,69.8,0,0,0,25.25-4.4A60.17,60.17,0,0,0,1003,612.73,52.91,52.91,0,0,0,1015.6,595a51.75,51.75,0,0,0,4.27-20.62,43.06,43.06,0,0,0-3.16-16.58Zm0,0" transform="translate(-761 -342)"/></svg>