<svg id="Calque_1" data-name="Calque 1" xmlns="http://www.w3.org/2000/svg" viewBox="0 0 396.93 396.92"><defs><style>.cls-1{fill:#f2c03c;}.cls-2{fill:#fff;}</style></defs><title>two</title><path class="cls-1" d="M959.46,342C849.85,342,761,430.85,761,540.46s88.85,198.46,198.46,198.46,198.47-88.85,198.47-198.46S1069.07,342,959.46,342Zm0,0" transform="translate(-761 -342)"/><path class="cls-2" d="M1016.83,602.47c-3.21-2.5-7.85-3.75-14-3.75H941.71a64.58,64.58,0,0,1,5.74-7.61q6.56-8,24.2-22.39t25.14-21.15q7.5-6.74,14.71-18.63a50.05,50.05,0,0,0,7.2-26.43,48.36,48.36,0,0,0-13.12-33.05,46.35,46.35,0,0,0-14.42-10.31q-12.64-5.62-30.58-5.62-14.88,0-26,4.39a53.72,53.72,0,0,0-18.28,11.54A48.46,48.46,0,0,0,905.5,485.4a44,44,0,0,0-3.63,16.88q0,6.68,3.86,10.54a13.19,13.19,0,0,0,9.73,3.87q6.67,0,10.14-4.22a40.21,40.21,0,0,0,6.21-12.07q2.75-7.84,3.92-9.61,8.79-13.47,24.15-13.47a28,28,0,0,1,13.41,3.28,24.89,24.89,0,0,1,9.73,9.2,25.47,25.47,0,0,1,3.57,13.41,33.4,33.4,0,0,1-3.34,14.13,54.33,54.33,0,0,1-9.72,14.06,103.81,103.81,0,0,1-16,13.65q-5.4,3.63-17.93,15.18t-28.12,27.71a40,40,0,0,0-6.92,11q-3.16,7-3.16,11.19a15.58,15.58,0,0,0,4.92,11.43q4.92,4.86,13.71,4.86h86.25q7.74,0,11.54-4a13.52,13.52,0,0,0,3.81-9.72,12.28,12.28,0,0,0-4.8-10.2Zm0,0" transform="translate(-761 -342)"/></svg>